<?xml version="1.0" encoding="iso-8859-1"?>
<!-- Generator: Adobe Illustrator 18.0.0, SVG Export Plug-In . SVG Version: 6.00 Build 0)  -->
<!DOCTYPE svg PUBLIC "-//W3C//DTD SVG 1.1//EN" "http://www.w3.org/Graphics/SVG/1.1/DTD/svg11.dtd">
<svg version="1.1" id="Capa_1" xmlns="http://www.w3.org/2000/svg" xmlns:xlink="http://www.w3.org/1999/xlink" x="0px" y="0px"
	 viewBox="0 0 459.044 459.044" style="enable-background:new 0 0 459.044 459.044;" xml:space="preserve">
<path style="stroke:#000000;stroke-width:0;stroke-linecap:round;stroke-linejoin:round;" d="M434.145,152.291l24.898-15.248
	H319.726h-22.668H217.89h-27.664H55.905l24.898,15.248H217.89v-5h34.584v14.057h-9.449c-4.405,0-8.292,2.883-9.57,7.099
	l-6.314,20.827l-162.129,4.671c-2.238-2.929-4.971-5.458-8.072-7.468c-8.66-17.122-22.806-36.419-25.098-39.508
	c-0.472-0.635-1.217-1.01-2.008-1.01H2.5c-0.855,0-1.651,0.438-2.11,1.159c-0.458,0.723-0.517,1.629-0.151,2.403
	c7.015,14.95,14.004,32.546,9.152,53.227c-1.167,3.316-1.809,6.878-1.809,10.589c0,17.645,14.355,32,32,32
	c12.535,0,23.402-7.248,28.65-17.77l102.857,18.78c2.396,20.988,14.023,36.563,33.742,45.125c14.6,6.338,28.498,6.521,30.035,6.521
	h0.191V308h-30.563c-1.934,0-3.5,1.567-3.5,3.5c0,1.123-4.262,3.031-8.783,3.52c-1.852,0.193-3.228,1.804-3.13,3.663
	c0.097,1.859,1.633,3.317,3.495,3.317h139c15.195,0,19.896-8.492,20.089-8.853c0.577-1.085,0.545-2.394-0.088-3.447
	c-0.632-1.055-1.771-1.699-3.001-1.699h-41.52v-10.006h14.453c33.465,0,50.564-35.246,51.08-36.898
	c0.709-2.279,0.461-4.75-0.688-6.844c-20.203-36.797-48.916-58.541-83.926-64.478l-6.43-21.314
	c-1.274-4.223-5.164-7.112-9.574-7.112h-9.5v-14.057h34.584v5H434.145z M39.582,231.338c-9.925,0-18-8.075-18-18
	c0-9.925,8.075-18,18-18s18,8.075,18,18C57.582,223.263,49.507,231.338,39.582,231.338z M300.058,308h-58v-10.006h58V308z
	 M276.54,207.965c15.39,0,58.897,20.143,70.815,49.808h-77.055c0,0-50.636,6.06-55.037-49.808
	C215.263,207.965,261.141,207.965,276.54,207.965z"/>
<g>
</g>
<g>
</g>
<g>
</g>
<g>
</g>
<g>
</g>
<g>
</g>
<g>
</g>
<g>
</g>
<g>
</g>
<g>
</g>
<g>
</g>
<g>
</g>
<g>
</g>
<g>
</g>
<g>
</g>
</svg>
